# xmcd CD database file
#
# Track frame offsets:
#	150
#	19232
#	32800
#	45512
#	60801
#	75549
#	90934
#	108733
#	125117
#	138477
#	156652
#	175586
#	189070
#	208956
#	223351
#
# Disc length: 3159 seconds
#
# Revision: 0
# Processed by: cddbd v1.4PL0 Copyright (c) Steve Scherf et al.
# Submitted via: CDex 1.50beta9
#
DISCID=d00c550f
DTITLE=Tito Puente - Tito Puente (Salsa Masters series) vol. 2
DYEAR=1900
DGENRE=Salsa
TTITLE0=Que Bueno Baila Usted
TTITLE1=Salsa Y Sabor
TTITLE2=A Gozar Timbero
TTITLE3=Ban Ban Queré
TTITLE4=Guaguancó Margarito
TTITLE5=Trátame Como Soy
TTITLE6=Manigua
TTITLE7=Mi Chiquita Quiere Guarachar
TTITLE8=Mi Bomba Sono
TTITLE9=Para Los Rumberos
TTITLE10=Si Alguna Vez
TTITLE11=Encantado De La Vida
TTITLE12=Niña Y Señora
TTITLE13=Palladium Days
TTITLE14=Salsarengue
EXTD=
EXTT0=
EXTT1=
EXTT2=
EXTT3=
EXTT4=
EXTT5=
EXTT6=
EXTT7=
EXTT8=
EXTT9=
EXTT10=
EXTT11=
EXTT12=
EXTT13=
EXTT14=
PLAYORDER=
